<svg xmlns="http://www.w3.org/2000/svg" xmlns:xlink="http://www.w3.org/1999/xlink" version="1.1" width="254.18333" height="267.72501" viewBox="0,0,254.18333,267.72501"><g><g stroke-miterlimit="10"><path d="M190.1791,298.92479v-267.72501h254.18333v267.72501z" fill="none" stroke="none" stroke-width="0" stroke-linecap="butt" transform="matrix(1,0,0,1,-190.17909,-31.19977)"/><path d="" fill="none" stroke="#000000" stroke-width="2" stroke-linecap="round" transform="matrix(1,0,0,1,-190.17909,-31.19977)"/><g><path d="M 105.1707 202.03 L 156.051 201.8598 L 130.1419 250.141 Z " fill="#ff6300" stroke-width="5" stroke-linecap="round" stroke="#000000"/><path d="M 64.4829 165.5121 L 101.1624 200.7747 L 48.9674 217.4496 Z " fill="#ff6300" stroke-width="5" stroke-linecap="round" stroke="#000000"/><path d="M 58.9902 113.5706 L 60.9132 164.4148 L 11.768 140.1844 Z " fill="#ff6300" stroke-width="5" stroke-linecap="round" stroke="#000000"/><path d="M 96.7369 75.0465 L 60.3382 110.5988 L 45.3131 57.9053 Z " fill="#ff6300" stroke-width="5" stroke-linecap="round" stroke="#000000"/><path d="M 154.8518 70.1756 L 103.9748 69.577 L 130.6104 21.6928 Z " fill="#ff6300" stroke-width="5" stroke-linecap="round" stroke="#000000"/><path d="M 199.0349 109.9242 L 163.4826 73.5254 L 216.1762 58.5004 Z " fill="#ff6300" stroke-width="5" stroke-linecap="round" stroke="#000000"/><path d="M 198.9539 162.1893 L 199.5524 111.3123 L 247.4367 137.9479 Z " fill="#ff6300" stroke-width="5" stroke-linecap="round" stroke="#000000"/><path d="M 160.4024 200.0875 L 196.8011 164.5353 L 211.8262 217.2288 Z " fill="#ff6300" stroke-width="5" stroke-linecap="round" stroke="#000000"/><path d="M 54.425 135.5262 C 54.425 96.4394 88.1809 64.7532 129.8209 64.7532 C 171.4609 64.7532 205.2168 96.4394 205.2168 135.5262 C 205.2168 174.6131 171.4609 206.2993 129.8209 206.2993 C 88.1809 206.2993 54.425 174.6131 54.425 135.5262 Z " fill="#ffe63c" stroke-width="5" stroke-linecap="butt" stroke="#000000"/><path d="M295.34981,233.22977l50.88028,-0.17023l-25.90909,48.28126z" fill="#ff6300" stroke-width="0" stroke-linecap="round" stroke="#000000" transform="matrix(1,0,0,1,-190.17909,-31.19977)"/><path d="M254.66204,196.71187l36.67943,35.26262l-52.19492,16.67485z" fill="#ff6300" stroke-width="0" stroke-linecap="round" stroke="#000000" transform="matrix(1,0,0,1,-190.17909,-31.19977)"/><path d="M249.16933,144.77036l1.92292,50.84422l-49.14515,-24.23045z" fill="#ff6300" stroke-width="0" stroke-linecap="round" stroke="#000000" transform="matrix(1,0,0,1,-190.17909,-31.19977)"/><path d="M286.91602,106.24628l-36.39875,35.55227l-15.02506,-52.69353z" fill="#ff6300" stroke-width="0" stroke-linecap="round" stroke="#000000" transform="matrix(1,0,0,1,-190.17909,-31.19977)"/><path d="M345.03093,101.37536l-50.87705,-0.59856l26.63563,-47.88427z" fill="#ff6300" stroke-width="0" stroke-linecap="round" stroke="#000000" transform="matrix(1,0,0,1,-190.17909,-31.19977)"/><path d="M389.21398,141.12395l-35.55227,-36.39875l52.69353,-15.02506z" fill="#ff6300" stroke-width="0" stroke-linecap="round" stroke="#000000" transform="matrix(1,0,0,1,-190.17909,-31.19977)"/><path d="M389.13293,193.38906l0.59856,-50.87705l47.88428,26.63563z" fill="#ff6300" stroke-width="0" stroke-linecap="round" stroke="#000000" transform="matrix(1,0,0,1,-190.17909,-31.19977)"/><path d="M350.58145,231.2873l36.39875,-35.55227l15.02506,52.69353z" fill="#ff6300" stroke-width="0" stroke-linecap="round" stroke="#000000" transform="matrix(1,0,0,1,-190.17909,-31.19977)"/><path d="M244.60409,166.72601c0,-39.08686 33.75591,-70.77302 75.39591,-70.77302c41.64002,0 75.39591,31.68616 75.39591,70.77302c0,39.08686 -33.7559,70.77303 -75.39591,70.77303c-41.64,0 -75.39591,-31.68617 -75.39591,-70.77303z" fill="#ffe63c" stroke-width="0" stroke-linecap="butt" stroke="#000000" transform="matrix(1,0,0,1,-190.17909,-31.19977)"/></g><path d="M280.5491,155.81939c0,-6.11558 4.95766,-11.07324 11.07324,-11.07324c6.11558,0 11.07324,4.95766 11.07324,11.07324c0,6.11558 -5.55621,-4.64517 -11.67179,-4.64517c-6.11558,0 -10.47469,10.76075 -10.47469,4.64517z" fill="#000000" stroke="none" stroke-width="NaN" stroke-linecap="butt" transform="matrix(1,0,0,1,-190.17909,-31.19977)"/><path d="M347.68489,150.91859c-6.11558,0 -10.81761,11.01638 -10.81761,4.9008c0,-6.11558 4.95766,-11.07324 11.07324,-11.07324c6.11558,0 11.07324,4.95766 11.07324,11.07324c0,6.11558 -5.21329,-4.9008 -11.32887,-4.9008z" fill="#000000" stroke="none" stroke-width="NaN" stroke-linecap="butt" transform="matrix(1,0,0,1,-190.17909,-31.19977)"/><path d="M 98.5656 146.8492 L 163.4843 148.1305 C 163.4843 148.1305 150.528 190.8317 129.3165 190.4131 C 108.1051 189.9944 98.5656 146.8492 98.5656 146.8492 Z " fill="#000000" stroke="#000000" stroke-width="1.5" stroke-linecap="round"/></g></g></svg>